# xmcd
#
# Track frame offsets:
#	150
#	14535
#	26393
#	39074
#	49909
#	62100
#	73542
#	85014
#	96206
#	108096
#	120131
#	128784
#	139482
#	151340
#	161735
#	170225
#	184452
#	193403
#	203386
#	215265
#	225321
#	237456
#	248198
#	261542
#	272306
#	284370
#
# Disc length: 3917 seconds
#
# Revision: 4
# Processed by: cddbd v1.5.2PL0 Copyright (c) Steve Scherf et al.
# Submitted via: audiograbber 1.83.01
#
DISCID=6f0f4b1a
DTITLE=Various Artist - Dreamboats And Petticoats Four
DYEAR=2010
DGENRE=Pop
TTITLE0=Cliff Richard and The Shadows - The Young Ones
TTITLE1=Billy Fury - I'd Never Find Another You
TTITLE2=Buddy Holly - Raining In My Heart
TTITLE3=The Everly Brothers - Cathy's Clown
TTITLE4=Neil Sedaka - Little Devil
TTITLE5=Roy Orbison - Dream Baby (How Long Must I Dream)
TTITLE6=Franki Valli and The Four Seasons - Sherry
TTITLE7=Bobby Vee - More Than I Can Say
TTITLE8=The Crystals - Then He Kissed Me
TTITLE9=The Ronettes - Be My Baby
TTITLE10=Joe Brown And The Bruvvers - Sally Ann
TTITLE11=Marty Wilde - Bad Boy
TTITLE12=Ricky Valance - Tell Laura I Love Her
TTITLE13=Johnny Burnette - Dreamin'
TTITLE14=The Chiffons - He's So Fine
TTITLE15=Lonnie Donegan - The Battle Of New Orleans
TTITLE16=Jimmy Jones - Handy Man
TTITLE17=Kathy Kirby - Let Me Go Lover
TTITLE18=Connie Francis - Where The Boys Are
TTITLE19=Jess Conrad - Cherry Pie
TTITLE20=Dave Berry - The Crying Game
TTITLE21=Chuck Berry - Roll Over Beethoven
TTITLE22=Kenny Ball - Sukiyaki
TTITLE23=Jet Harris and Tony Meehan - Diamonds  
TTITLE24=The Coasters - Poison Ivy
TTITLE25=Brian Poole and The Tremeloes - Twist And Shout
EXTD=UMTV 5331309 2010
EXTT0=
EXTT1=
EXTT2=
EXTT3=
EXTT4=
EXTT5=
EXTT6=
EXTT7=
EXTT8=
EXTT9=
EXTT10=
EXTT11=
EXTT12=
EXTT13=
EXTT14=
EXTT15=
EXTT16=
EXTT17=
EXTT18=
EXTT19=
EXTT20=
EXTT21=
EXTT22=
EXTT23=
EXTT24=
EXTT25=
PLAYORDER=
